<?xml version="1.0" standalone="no"?>
<!DOCTYPE svg PUBLIC "-//W3C//DTD SVG 20010904//EN"
 "http://www.w3.org/TR/2001/REC-SVG-20010904/DTD/svg10.dtd">
<svg version="1.0" xmlns="http://www.w3.org/2000/svg"
 width="150.000000pt" height="108.000000pt" viewBox="0 0 100.000000 108.000000"
 preserveAspectRatio="xMidYMid meet">

<g transform="translate(-60.000000,215.000000) scale(0.120000,-0.120000)"
fill="yellow" stroke="none">
<path d="M850 1785 c-106 -24 -192 -108 -230 -213 -20 -52 -21 -73 -18 -247
l3 -180 34 -63 c42 -72 84 -115 161 -151 48 -23 68 -26 155 -26 89 0 106 3
157 28 73 36 150 119 175 189 15 44 18 84 18 238 0 179 -1 187 -26 241 -58
124 -163 195 -299 204 -50 3 -93 0 -130 -10z m246 -49 c66 -31 120 -86 151
-154 22 -46 25 -70 27 -165 l1 -112 -77 -3 -78 -3 0 47 c0 70 -37 127 -100
156 l-50 23 0 67 0 68 30 0 c20 0 30 5 30 15 0 12 -16 15 -80 15 -64 0 -80 -3
-80 -15 0 -10 10 -15 30 -15 l30 0 0 -68 0 -67 -50 -23 c-63 -29 -100 -86
-100 -155 l0 -47 -75 0 -75 0 0 98 c0 117 17 184 63 244 35 45 92 88 142 106
17 6 71 11 120 11 75 1 99 -3 141 -23z m-70 -271 c38 -25 64 -75 64 -122 l0
-43 -140 0 -140 0 0 44 c0 111 125 181 216 121z m-246 -262 c0 -116 50 -163
170 -163 104 0 170 49 170 126 0 33 22 60 40 49 15 -9 12 -35 -5 -41 -19 -8
-20 -34 -1 -34 21 0 46 28 46 52 0 29 -28 58 -57 58 -12 0 -23 5 -23 10 0 6
34 10 81 10 l80 0 -6 -57 c-8 -76 -56 -174 -103 -213 -70 -58 -118 -74 -217
-74 -70 0 -100 4 -136 21 -106 48 -175 144 -186 259 l-6 64 77 0 76 0 0 -67z
m310 2 c0 -57 -3 -68 -29 -97 -29 -32 -31 -33 -111 -33 -80 0 -82 1 -111 33
-26 29 -29 40 -29 97 l0 65 140 0 140 0 0 -65z"/>

</g>
</svg>
